<svg width="32" height="31" viewBox="0 0 32 31" fill="none" xmlns="http://www.w3.org/2000/svg">
<path fill-rule="evenodd" clip-rule="evenodd" d="M4.72148 3.04745C5.41411 3.04745 5.97561 3.60894 5.97561 4.30158V24.3677C5.97561 25.0603 6.5371 25.6218 7.22974 25.6218H27.2958C27.9885 25.6218 28.55 26.1833 28.55 26.8759C28.55 27.5686 27.9885 28.1301 27.2958 28.1301H7.22974C5.15183 28.1301 3.46735 26.4456 3.46735 24.3677V4.30158C3.46735 3.60894 4.02884 3.04745 4.72148 3.04745ZM8.83879 9.698C9.32161 9.20138 10.1156 9.1902 10.6122 9.67302L14.762 13.7076H20.2727C20.5992 13.7076 20.9128 13.8349 21.1469 14.0625L25.6618 18.4519C26.1584 18.9348 26.1696 19.7287 25.6868 20.2254C25.2039 20.722 24.41 20.7332 23.9133 20.2503L19.7635 16.2158H14.2529C13.9264 16.2158 13.6127 16.0885 13.3786 15.8609L8.86377 11.4714C8.36715 10.9886 8.35597 10.1946 8.83879 9.698Z" fill="black"/>
</svg>
