<svg width="172" height="49" viewBox="0 0 172 49" fill="none" xmlns="http://www.w3.org/2000/svg">
<g filter="url(#filter0_d_797_596)">
<path d="M22.074 21.204C21.606 21.096 21.09 21.042 20.526 21.042C19.626 21.042 18.798 21.234 18.042 21.618C17.298 21.99 16.656 22.482 16.116 23.094C15.576 23.706 15.15 24.408 14.838 25.2C14.538 25.992 14.388 26.802 14.388 27.63C14.388 28.494 14.586 29.19 14.982 29.718C15.378 30.234 15.966 30.492 16.746 30.492C17.118 30.492 17.49 30.432 17.862 30.312C18.246 30.192 18.612 29.982 18.96 29.682C19.32 29.382 19.65 28.974 19.95 28.458C20.25 27.942 20.502 27.294 20.706 26.514L22.074 21.204ZM23.19 26.226C22.95 27.138 22.836 27.882 22.848 28.458C22.86 29.022 22.95 29.466 23.118 29.79C23.298 30.114 23.544 30.336 23.856 30.456C24.168 30.564 24.51 30.618 24.882 30.618C25.47 30.618 26.028 30.45 26.556 30.114C27.084 29.778 27.546 29.304 27.942 28.692C28.35 28.08 28.668 27.348 28.896 26.496C29.136 25.632 29.256 24.678 29.256 23.634C29.256 21.978 28.992 20.526 28.464 19.278C27.936 18.03 27.204 16.992 26.268 16.164C25.344 15.324 24.246 14.7 22.974 14.292C21.714 13.872 20.352 13.662 18.888 13.662C17.28 13.662 15.774 13.968 14.37 14.58C12.966 15.192 11.742 16.038 10.698 17.118C9.65398 18.198 8.82598 19.476 8.21398 20.952C7.61398 22.428 7.31398 24.036 7.31398 25.776C7.31398 27.816 7.63198 29.61 8.26798 31.158C8.91598 32.694 9.79198 33.984 10.896 35.028C12.012 36.072 13.32 36.858 14.82 37.386C16.32 37.914 17.928 38.178 19.644 38.178C21.468 38.178 23.076 37.98 24.468 37.584C25.872 37.188 27.084 36.684 28.104 36.072C28.344 35.928 28.554 35.886 28.734 35.946C28.914 35.994 29.046 36.126 29.13 36.342L29.598 37.53C28.302 38.394 26.832 39.072 25.188 39.564C23.556 40.056 21.708 40.302 19.644 40.302C17.556 40.302 15.618 39.972 13.83 39.312C12.042 38.652 10.488 37.698 9.16798 36.45C7.85998 35.214 6.82798 33.696 6.07198 31.896C5.32798 30.096 4.95598 28.056 4.95598 25.776C4.95598 24.468 5.11798 23.208 5.44198 21.996C5.77798 20.784 6.24598 19.656 6.84598 18.612C7.44598 17.556 8.16598 16.596 9.00598 15.732C9.84598 14.856 10.782 14.112 11.814 13.5C12.846 12.876 13.956 12.396 15.144 12.06C16.344 11.712 17.592 11.538 18.888 11.538C19.992 11.538 21.072 11.658 22.128 11.898C23.184 12.138 24.18 12.492 25.116 12.96C26.064 13.428 26.928 14.01 27.708 14.706C28.5 15.39 29.184 16.182 29.76 17.082C30.336 17.97 30.78 18.966 31.092 20.07C31.416 21.162 31.578 22.35 31.578 23.634C31.578 24.93 31.392 26.13 31.02 27.234C30.66 28.326 30.156 29.274 29.508 30.078C28.872 30.882 28.116 31.512 27.24 31.968C26.364 32.424 25.422 32.652 24.414 32.652C23.502 32.652 22.746 32.43 22.146 31.986C21.558 31.53 21.18 30.84 21.012 29.916C20.328 30.876 19.578 31.566 18.762 31.986C17.946 32.406 17.064 32.616 16.116 32.616C15.408 32.616 14.784 32.496 14.244 32.256C13.716 32.004 13.278 31.662 12.93 31.23C12.582 30.786 12.318 30.264 12.138 29.664C11.97 29.064 11.886 28.416 11.886 27.72C11.886 26.7 12.078 25.674 12.462 24.642C12.858 23.598 13.44 22.662 14.208 21.834C14.976 20.994 15.93 20.31 17.07 19.782C18.21 19.254 19.53 18.99 21.03 18.99C21.834 18.99 22.542 19.056 23.154 19.188C23.766 19.308 24.342 19.488 24.882 19.728L23.19 26.226ZM43.6529 22.698C44.6609 22.698 45.5489 22.578 46.3169 22.338C47.0969 22.086 47.7449 21.738 48.2609 21.294C48.7889 20.838 49.1849 20.298 49.4489 19.674C49.7129 19.05 49.8449 18.36 49.8449 17.604C49.8449 16.068 49.3409 14.91 48.3329 14.13C47.3249 13.35 45.8129 12.96 43.7969 12.96H39.9809V22.698H43.6529ZM55.5689 36H52.4729C51.8369 36 51.3689 35.754 51.0689 35.262L44.3729 26.046C44.1689 25.758 43.9469 25.554 43.7069 25.434C43.4789 25.302 43.1189 25.236 42.6269 25.236H39.9809V36H36.5069V10.206H43.7969C45.4289 10.206 46.8389 10.374 48.0269 10.71C49.2149 11.034 50.1929 11.508 50.9609 12.132C51.7409 12.756 52.3169 13.512 52.6889 14.4C53.0609 15.276 53.2469 16.26 53.2469 17.352C53.2469 18.264 53.1029 19.116 52.8149 19.908C52.5269 20.7 52.1069 21.414 51.5549 22.05C51.0149 22.674 50.3489 23.208 49.5569 23.652C48.7769 24.096 47.8889 24.432 46.8929 24.66C47.3369 24.912 47.7209 25.278 48.0449 25.758L55.5689 36ZM69.365 24.894C69.365 24.15 69.257 23.472 69.041 22.86C68.837 22.236 68.531 21.702 68.123 21.258C67.727 20.802 67.241 20.454 66.665 20.214C66.089 19.962 65.435 19.836 64.703 19.836C63.167 19.836 61.949 20.286 61.049 21.186C60.161 22.074 59.609 23.31 59.393 24.894H69.365ZM71.957 33.444C71.561 33.924 71.087 34.344 70.535 34.704C69.983 35.052 69.389 35.34 68.753 35.568C68.129 35.796 67.481 35.964 66.809 36.072C66.137 36.192 65.471 36.252 64.811 36.252C63.551 36.252 62.387 36.042 61.319 35.622C60.263 35.19 59.345 34.566 58.565 33.75C57.797 32.922 57.197 31.902 56.765 30.69C56.333 29.478 56.117 28.086 56.117 26.514C56.117 25.242 56.309 24.054 56.693 22.95C57.089 21.846 57.653 20.892 58.385 20.088C59.117 19.272 60.011 18.636 61.067 18.18C62.123 17.712 63.311 17.478 64.631 17.478C65.723 17.478 66.731 17.664 67.655 18.036C68.591 18.396 69.395 18.924 70.067 19.62C70.751 20.304 71.285 21.156 71.669 22.176C72.053 23.184 72.245 24.336 72.245 25.632C72.245 26.136 72.191 26.472 72.083 26.64C71.975 26.808 71.771 26.892 71.471 26.892H59.285C59.321 28.044 59.477 29.046 59.753 29.898C60.041 30.75 60.437 31.464 60.941 32.04C61.445 32.604 62.045 33.03 62.741 33.318C63.437 33.594 64.217 33.732 65.081 33.732C65.885 33.732 66.575 33.642 67.151 33.462C67.739 33.27 68.243 33.066 68.663 32.85C69.083 32.634 69.431 32.436 69.707 32.256C69.995 32.064 70.241 31.968 70.445 31.968C70.709 31.968 70.913 32.07 71.057 32.274L71.957 33.444ZM79.2046 20.412C79.6006 19.968 80.0206 19.566 80.4646 19.206C80.9086 18.846 81.3766 18.54 81.8686 18.288C82.3726 18.024 82.9006 17.826 83.4526 17.694C84.0166 17.55 84.6226 17.478 85.2706 17.478C86.2666 17.478 87.1426 17.646 87.8986 17.982C88.6666 18.306 89.3026 18.774 89.8066 19.386C90.3226 19.986 90.7126 20.712 90.9766 21.564C91.2406 22.416 91.3726 23.358 91.3726 24.39V36H88.1506V24.39C88.1506 23.01 87.8326 21.942 87.1966 21.186C86.5726 20.418 85.6186 20.034 84.3346 20.034C83.3866 20.034 82.4986 20.262 81.6706 20.718C80.8546 21.174 80.0986 21.792 79.4026 22.572V36H76.1806V17.766H78.1066C78.5626 17.766 78.8446 17.988 78.9526 18.432L79.2046 20.412ZM108.135 22.104C107.535 21.3 106.887 20.742 106.191 20.43C105.495 20.106 104.715 19.944 103.851 19.944C102.159 19.944 100.857 20.55 99.9448 21.762C99.0328 22.974 98.5768 24.702 98.5768 26.946C98.5768 28.134 98.6788 29.154 98.8828 30.006C99.0868 30.846 99.3868 31.542 99.7828 32.094C100.179 32.634 100.665 33.03 101.241 33.282C101.817 33.534 102.471 33.66 103.203 33.66C104.259 33.66 105.177 33.42 105.957 32.94C106.749 32.46 107.475 31.782 108.135 30.906V22.104ZM111.339 9.486V36H109.431C108.975 36 108.687 35.778 108.567 35.334L108.279 33.12C107.499 34.056 106.611 34.812 105.615 35.388C104.619 35.964 103.467 36.252 102.159 36.252C101.115 36.252 100.167 36.054 99.3148 35.658C98.4628 35.25 97.7368 34.656 97.1368 33.876C96.5368 33.096 96.0748 32.124 95.7508 30.96C95.4268 29.796 95.2648 28.458 95.2648 26.946C95.2648 25.602 95.4448 24.354 95.8048 23.202C96.1648 22.038 96.6808 21.03 97.3528 20.178C98.0248 19.326 98.8468 18.66 99.8188 18.18C100.803 17.688 101.907 17.442 103.131 17.442C104.247 17.442 105.201 17.634 105.993 18.018C106.797 18.39 107.511 18.912 108.135 19.584V9.486H111.339ZM128.603 24.894C128.603 24.15 128.495 23.472 128.279 22.86C128.075 22.236 127.769 21.702 127.361 21.258C126.965 20.802 126.479 20.454 125.903 20.214C125.327 19.962 124.673 19.836 123.941 19.836C122.405 19.836 121.187 20.286 120.287 21.186C119.399 22.074 118.847 23.31 118.631 24.894H128.603ZM131.195 33.444C130.799 33.924 130.325 34.344 129.773 34.704C129.221 35.052 128.627 35.34 127.991 35.568C127.367 35.796 126.719 35.964 126.047 36.072C125.375 36.192 124.709 36.252 124.049 36.252C122.789 36.252 121.625 36.042 120.557 35.622C119.501 35.19 118.583 34.566 117.803 33.75C117.035 32.922 116.435 31.902 116.003 30.69C115.571 29.478 115.355 28.086 115.355 26.514C115.355 25.242 115.547 24.054 115.931 22.95C116.327 21.846 116.891 20.892 117.623 20.088C118.355 19.272 119.249 18.636 120.305 18.18C121.361 17.712 122.549 17.478 123.869 17.478C124.961 17.478 125.969 17.664 126.893 18.036C127.829 18.396 128.633 18.924 129.305 19.62C129.989 20.304 130.523 21.156 130.907 22.176C131.291 23.184 131.483 24.336 131.483 25.632C131.483 26.136 131.429 26.472 131.321 26.64C131.213 26.808 131.009 26.892 130.709 26.892H118.523C118.559 28.044 118.715 29.046 118.991 29.898C119.279 30.75 119.675 31.464 120.179 32.04C120.683 32.604 121.283 33.03 121.979 33.318C122.675 33.594 123.455 33.732 124.319 33.732C125.123 33.732 125.813 33.642 126.389 33.462C126.977 33.27 127.481 33.066 127.901 32.85C128.321 32.634 128.669 32.436 128.945 32.256C129.233 32.064 129.479 31.968 129.683 31.968C129.947 31.968 130.151 32.07 130.295 32.274L131.195 33.444ZM138.731 9.486V36H135.527V9.486H138.731ZM147.239 9.486V36H144.035V9.486H147.239ZM164.638 24.894C164.638 24.15 164.53 23.472 164.314 22.86C164.11 22.236 163.804 21.702 163.396 21.258C163 20.802 162.514 20.454 161.938 20.214C161.362 19.962 160.708 19.836 159.976 19.836C158.44 19.836 157.222 20.286 156.322 21.186C155.434 22.074 154.882 23.31 154.666 24.894H164.638ZM167.23 33.444C166.834 33.924 166.36 34.344 165.808 34.704C165.256 35.052 164.662 35.34 164.026 35.568C163.402 35.796 162.754 35.964 162.082 36.072C161.41 36.192 160.744 36.252 160.084 36.252C158.824 36.252 157.66 36.042 156.592 35.622C155.536 35.19 154.618 34.566 153.838 33.75C153.07 32.922 152.47 31.902 152.038 30.69C151.606 29.478 151.39 28.086 151.39 26.514C151.39 25.242 151.582 24.054 151.966 22.95C152.362 21.846 152.926 20.892 153.658 20.088C154.39 19.272 155.284 18.636 156.34 18.18C157.396 17.712 158.584 17.478 159.904 17.478C160.996 17.478 162.004 17.664 162.928 18.036C163.864 18.396 164.668 18.924 165.34 19.62C166.024 20.304 166.558 21.156 166.942 22.176C167.326 23.184 167.518 24.336 167.518 25.632C167.518 26.136 167.464 26.472 167.356 26.64C167.248 26.808 167.044 26.892 166.744 26.892H154.558C154.594 28.044 154.75 29.046 155.026 29.898C155.314 30.75 155.71 31.464 156.214 32.04C156.718 32.604 157.318 33.03 158.014 33.318C158.71 33.594 159.49 33.732 160.354 33.732C161.158 33.732 161.848 33.642 162.424 33.462C163.012 33.27 163.516 33.066 163.936 32.85C164.356 32.634 164.704 32.436 164.98 32.256C165.268 32.064 165.514 31.968 165.718 31.968C165.982 31.968 166.186 32.07 166.33 32.274L167.23 33.444Z" fill="#1D1D1D"/>
</g>
<defs>
<filter id="filter0_d_797_596" x="0.955933" y="9.48608" width="170.562" height="38.8159" filterUnits="userSpaceOnUse" color-interpolation-filters="sRGB">
<feFlood flood-opacity="0" result="BackgroundImageFix"/>
<feColorMatrix in="SourceAlpha" type="matrix" values="0 0 0 0 0 0 0 0 0 0 0 0 0 0 0 0 0 0 127 0" result="hardAlpha"/>
<feOffset dy="4"/>
<feGaussianBlur stdDeviation="2"/>
<feComposite in2="hardAlpha" operator="out"/>
<feColorMatrix type="matrix" values="0 0 0 0 0 0 0 0 0 0 0 0 0 0 0 0 0 0 0.25 0"/>
<feBlend mode="normal" in2="BackgroundImageFix" result="effect1_dropShadow_797_596"/>
<feBlend mode="normal" in="SourceGraphic" in2="effect1_dropShadow_797_596" result="shape"/>
</filter>
</defs>
</svg>
