<svg width="24" height="24" viewBox="0 0 24 24" fill="none" xmlns="http://www.w3.org/2000/svg">
<path fill-rule="evenodd" clip-rule="evenodd" d="M17 12.0312C17 11.7551 17.2239 11.5312 17.5 11.5312H18.5C18.7761 11.5312 19 11.7551 19 12.0312C19 12.3074 18.7761 12.5312 18.5 12.5312H17.5C17.2239 12.5312 17 12.3074 17 12.0312Z" fill="black"/>
<path fill-rule="evenodd" clip-rule="evenodd" d="M20 5H4C3.44772 5 3 5.44772 3 6V18C3 18.5523 3.44772 19 4 19H20C20.5523 19 21 18.5523 21 18V6C21 5.44772 20.5523 5 20 5ZM4 4C2.89543 4 2 4.89543 2 6V18C2 19.1046 2.89543 20 4 20H20C21.1046 20 22 19.1046 22 18V6C22 4.89543 21.1046 4 20 4H4Z" fill="black"/>
<path fill-rule="evenodd" clip-rule="evenodd" d="M14.5 12C14.5 12.7956 14.8161 13.5587 15.3787 14.1213C15.9413 14.6839 16.7043 15 17.5 15H21.5V14H17.5C16.9696 14 16.4609 13.7893 16.0858 13.4142C15.7107 13.0391 15.5 12.5304 15.5 12C15.5 11.4696 15.7107 10.9609 16.0858 10.5858C16.4609 10.2107 16.9696 10 17.5 10H21.5V9H17.5C16.7044 9 15.9413 9.31607 15.3787 9.87868C14.8161 10.4413 14.5 11.2044 14.5 12Z" fill="black"/>
</svg>
