<svg width="32" height="32" viewBox="0 0 32 32" fill="none" xmlns="http://www.w3.org/2000/svg">
<path d="M10.3544 14.8544C10.3544 14.3021 10.8021 13.8544 11.3544 13.8544H23.4783H29.3544C29.9067 13.8544 30.3544 14.3021 30.3544 14.8544V25.8544C30.3544 26.4067 29.9067 26.8544 29.3544 26.8544H11.3544C10.8021 26.8544 10.3544 26.4067 10.3544 25.8544V22.4812V16.5916V14.8544Z" fill="#F8DA7F"/>
<path d="M10.786 16.8544H29.786V17.8544H10.786V16.8544Z" fill="#F8DA7F"/>
<path d="M2.13173 13.9563L20.5677 6.89413L20.9462 7.7682L2.51022 14.8304L2.13173 13.9563Z" fill="#F8DA7F"/>
<path d="M7.30509 17.7594L10.3544 16.5916M13.8544 21.3544H21.8544M23.4783 13.8544H11.3544C10.8021 13.8544 10.3544 14.3021 10.3544 14.8544V16.5916M23.4783 13.8544H29.3544C29.9067 13.8544 30.3544 14.3021 30.3544 14.8544V25.8544C30.3544 26.4067 29.9067 26.8544 29.3544 26.8544H11.3544C10.8021 26.8544 10.3544 26.4067 10.3544 25.8544V22.4812M23.4783 13.8544L20.3892 5.78824C20.1917 5.27249 19.6135 5.01451 19.0977 5.21203L2.28824 11.6496C1.77249 11.8471 1.51451 12.4253 1.71203 12.9411L5.64608 23.2135C5.8436 23.7293 6.42182 23.9873 6.93758 23.7897L10.3544 22.4812M10.3544 22.4812V16.5916M10.786 16.8544H29.786V17.8544H10.786V16.8544ZM2.13173 13.9563L20.5677 6.89413L20.9462 7.7682L2.51022 14.8304L2.13173 13.9563Z" stroke="black" stroke-linecap="round"/>
</svg>
